<svg width="233" height="81" viewBox="0 0 233 81" fill="none" xmlns="http://www.w3.org/2000/svg">
<g clip-path="url(#clip0_1014_2627)">
<path d="M13.4053 57.8492C14.3899 60.4659 15.7531 62.7032 17.4951 64.5612C19.2371 66.4195 21.3009 67.8415 23.6865 68.8275C26.0723 69.8135 28.6662 70.3064 31.4685 70.3064C34.1951 70.3064 36.7511 69.7944 39.1369 68.7703C41.5227 67.7463 43.6053 66.3054 45.3851 64.4474C47.1648 62.5892 48.5471 60.371 49.5317 57.7923C50.5164 55.2136 51.0085 52.3318 51.0085 49.1462V0H62.937V79.6349H51.1222V72.2401C48.4714 75.0462 45.3471 77.2077 41.7497 78.7249C38.152 80.2416 34.2708 81 30.1053 81C25.8639 81 21.9067 80.2604 18.2334 78.7815C14.5603 77.3026 11.3792 75.1982 8.69075 72.4677C6.00231 69.7372 3.88146 66.4575 2.32898 62.6272C0.776243 58.7972 0 54.5311 0 49.8286V0H11.9284V49.1462C11.9284 52.3318 12.4206 55.2325 13.4053 57.8492Z" fill="#010202"/>
<path d="M83.4974 0V29.0098C86.1481 26.3553 89.2156 24.2509 92.6994 22.696C96.1832 21.1411 99.9702 20.3637 104.06 20.3637C108.301 20.3637 112.277 21.1599 115.988 22.7526C119.699 24.3453 122.918 26.5069 125.645 29.2374C128.371 31.9678 130.53 35.191 132.12 38.9072C133.711 42.6237 134.506 46.5675 134.506 50.7389C134.506 54.91 133.711 58.8349 132.12 62.5132C130.53 66.1917 128.371 69.3961 125.645 72.1261C122.918 74.8566 119.699 77.0182 115.988 78.6109C112.277 80.2035 108.301 80.9998 104.06 80.9998C99.9699 80.9998 96.1644 80.2224 92.6426 78.6675C89.1209 77.1128 86.0345 75.0081 83.3838 72.3537V79.6346H72.0234V0H83.4974ZM84.8038 58.5885C85.8261 61.0156 87.2464 63.1392 89.0641 64.9594C90.8818 66.7797 93.0023 68.2208 95.4258 69.2826C97.8496 70.3444 100.462 70.8753 103.265 70.8753C105.991 70.8753 108.566 70.3444 110.99 69.2826C113.413 68.2208 115.515 66.7799 117.295 64.9594C119.075 63.1395 120.495 61.0156 121.555 58.5885C122.615 56.1616 123.145 53.5451 123.145 50.7389C123.145 47.9326 122.615 45.297 121.555 42.8321C120.495 40.3672 119.075 38.2248 117.295 36.4045C115.515 34.5845 113.413 33.1623 110.99 32.1385C108.566 31.1147 105.991 30.6025 103.265 30.6025C100.538 30.6025 97.9632 31.1145 95.5397 32.1385C93.1162 33.1625 90.9956 34.5845 89.1777 36.4045C87.3603 38.2248 85.9211 40.3672 84.8609 42.8321C83.8006 45.297 83.2704 47.9326 83.2704 50.7389C83.2702 53.5451 83.7814 56.1616 84.8038 58.5885Z" fill="#010202"/>
<path d="M140.981 39.0213C142.495 35.3808 144.578 32.1765 147.229 29.4083C149.879 26.6401 153.023 24.4596 156.658 22.8669C160.293 21.2742 164.232 20.478 168.473 20.478C172.638 20.478 176.501 21.2365 180.061 22.7531C183.62 24.27 186.687 26.3747 189.263 29.0672C191.838 31.7594 193.845 34.945 195.283 38.6233C196.723 42.3018 197.442 46.3025 197.442 50.6256V54.3799H150.296C150.675 56.731 151.433 58.9115 152.568 60.921C153.705 62.9308 155.124 64.6753 156.829 66.1542C158.533 67.6333 160.464 68.79 162.622 69.624C164.781 70.4582 167.072 70.8756 169.496 70.8756C176.388 70.8756 181.954 68.0313 186.196 62.343L194.489 68.4862C191.611 72.3542 188.051 75.388 183.81 77.5874C179.569 79.7867 174.797 80.8865 169.496 80.8865C165.179 80.8865 161.146 80.1278 157.397 78.6111C153.648 77.0945 150.391 74.9706 147.627 72.2402C144.863 69.5097 142.685 66.3055 141.095 62.6272C139.504 58.949 138.709 54.948 138.709 50.6251C138.708 46.5298 139.466 42.6617 140.981 39.0213ZM156.942 34.5274C153.723 37.2199 151.584 40.8035 150.524 45.2782H185.855C184.87 40.8035 182.768 37.2199 179.549 34.5274C176.331 31.8352 172.563 30.489 168.246 30.489C163.929 30.489 160.161 31.8352 156.942 34.5274Z" fill="#010202"/>
<path d="M218.912 35.8356C216.489 38.4901 215.277 42.0925 215.277 46.6433V79.6351H203.803V21.6153H215.163V28.7825C216.602 26.4313 218.477 24.5731 220.787 23.208C223.096 21.8426 225.842 21.1599 229.023 21.1599H232.999V31.8538H228.228C224.441 31.854 221.336 33.1811 218.912 35.8356Z" fill="#010202"/>
</g>
<defs>
<clipPath id="clip0_1014_2627">
<rect width="233" height="81" fill="white"/>
</clipPath>
</defs>
</svg>
