<svg width="135" height="90" viewBox="0 0 135 90" fill="none" xmlns="http://www.w3.org/2000/svg">
<path d="M83.936 71.3453V74.9929H85.1057V72.5643H89.363V74.9929H90.5319V71.3516L83.936 71.3453ZM84.9754 70.1654H89.4732C90.098 70.0412 90.5626 69.4899 90.6936 68.9565H83.7552C83.8849 69.4901 84.3563 70.0412 84.9754 70.1654ZM80.3933 74.9952C80.9831 74.7452 81.3003 74.3127 81.4219 73.8067H76.1754L76.1787 68.9595L75.0027 68.9629V74.9952H80.3933ZM66.257 70.1491H70.4109C71.0372 69.9672 71.563 69.4901 71.6912 68.9612H65.0926V72.526H70.4933V73.777L66.257 73.7803C65.5931 73.9655 65.0301 74.4112 64.7493 75L65.0926 74.9937H71.6537V71.3408H66.257V70.1491ZM56.0023 70.1606H60.4987C61.1242 70.0359 61.5892 69.4851 61.7195 68.9512H54.7814C54.911 69.4851 55.3827 70.0359 56.0023 70.1606ZM56.0023 72.5447H60.4987C61.1242 72.4213 61.5892 71.87 61.7195 71.3358H54.7814C54.911 71.8702 55.3827 72.4213 56.0023 72.5447ZM56.0023 74.9945H60.4987C61.1242 74.8702 61.5892 74.319 61.7195 73.7855H54.7814C54.911 74.3192 55.3827 74.8702 56.0023 74.9945ZM44.3047 68.9659C44.4399 69.4931 44.8963 70.0319 45.5225 70.1669H47.4152L47.5118 70.205V74.9811H48.6937V70.205L48.8011 70.1669H50.6954C51.3286 70.0038 51.7753 69.4931 51.9081 68.9659V68.9542H44.3047V68.9659ZM67.5015 57.0326L73.4069 23.8198C79.0359 23.8198 80.8114 24.437 81.0678 26.9565C81.0678 26.9565 84.8439 25.5485 86.7484 22.689C79.3164 19.2452 71.849 19.0899 71.849 19.0899L67.4916 24.3971L67.5015 24.3964L63.1441 19.0891C63.1441 19.0891 55.6765 19.2445 48.2456 22.6883C50.1484 25.5479 53.926 26.9558 53.926 26.9558C54.1838 24.4362 55.9572 23.819 61.5484 23.815L67.5015 57.0326Z" fill="black"/>
<path d="M67.5009 17.5569C73.5085 17.5109 80.385 18.4863 87.4244 21.5544C88.3653 19.8609 88.6072 19.1125 88.6072 19.1125C80.912 16.068 73.7056 15.0261 67.5 15C61.2947 15.0261 54.0887 16.0682 46.3945 19.1125C46.3945 19.1125 46.7378 20.0344 47.5764 21.5544C54.6145 18.4863 61.4922 17.5109 67.5 17.5569H67.5009Z" fill="black"/>
</svg>
